<?xml version="1.0" standalone="no"?>
<!DOCTYPE svg PUBLIC "-//W3C//DTD SVG 20010904//EN"
 "http://www.w3.org/TR/2001/REC-SVG-20010904/DTD/svg10.dtd">
<svg version="1.0" xmlns="http://www.w3.org/2000/svg"
 width="225.000000pt" height="225.000000pt" viewBox="0 0 225.000000 225.000000"
 preserveAspectRatio="xMidYMid meet">
<metadata>
Created by potrace 1.14, written by Peter Selinger 2001-2017
</metadata>
<g transform="translate(0.000000,225.000000) scale(0.100000,-0.100000)"
fill="#000000" stroke="none">
<path d="M970 2135 c-122 -26 -457 -211 -543 -300 -53 -54 -101 -160 -133
-290 -15 -61 -32 -113 -37 -116 -37 -25 -61 -763 -26 -785 5 -3 9 -34 9 -69 0
-59 5 -74 69 -202 78 -153 113 -202 180 -244 56 -36 95 -37 188 -5 215 73 792
363 1060 532 164 104 192 126 212 168 43 88 82 351 84 562 l2 130 -52 105
c-29 57 -60 136 -69 174 -35 146 -81 194 -220 228 -32 8 -95 31 -139 50 -158
70 -416 97 -585 62z m-13 -234 c-42 -45 -78 -96 -100 -143 -54 -112 -54 -133
0 -39 51 90 132 181 201 226 42 27 43 28 113 16 345 -57 598 -335 599 -659 0
-73 0 -73 -61 -165 -34 -51 -68 -100 -77 -109 -8 -10 -11 -18 -6 -18 14 0 54
28 98 69 l38 36 -4 -52 c-3 -29 -4 -53 -3 -53 5 0 175 220 194 252 12 20 35
72 51 115 32 85 41 69 11 -18 -37 -109 -99 -209 -211 -338 -47 -55 -58 -74
-63 -116 -10 -73 -46 -173 -70 -197 -90 -86 -717 -424 -988 -532 -64 -25 -120
-46 -126 -46 -33 0 -163 137 -163 171 0 4 26 7 57 8 69 0 143 34 193 87 l35
38 -44 -37 c-63 -52 -107 -71 -183 -75 -58 -4 -67 -2 -77 16 -9 18 -6 20 35
26 60 8 159 56 209 101 36 32 33 31 -23 -9 -63 -45 -137 -76 -198 -81 -28 -3
-37 2 -56 27 -32 46 -67 138 -68 178 l0 35 128 2 c310 3 774 132 982 273 115
78 275 258 315 353 24 57 20 173 -8 222 -37 65 -61 73 -159 52 -46 -10 -124
-27 -174 -37 -135 -29 -329 -40 -713 -40 l-344 0 7 43 c4 23 19 84 33 136 24
85 30 96 66 122 22 16 43 29 47 29 5 0 4 -17 -1 -37 -5 -21 -8 -63 -8 -93 l1
-55 9 50 c4 28 16 77 26 110 l19 60 89 47 c133 71 278 114 394 117 l43 1 -65
-69z m941 -185 c-4 -89 -10 -114 -46 -207 -40 -99 -71 -158 -72 -133 0 6 21
71 46 145 40 114 48 149 52 233 3 72 7 94 15 81 5 -10 7 -61 5 -119z m-263
-222 c27 -11 45 -60 45 -126 0 -75 -30 -146 -92 -222 -46 -56 -169 -168 -176
-161 -3 2 13 25 34 51 21 25 67 82 102 127 l62 82 -45 7 c-26 3 -53 12 -61 19
-20 17 -44 63 -44 86 0 38 22 93 41 103 18 10 19 8 13 -45 -6 -45 -4 -59 11
-75 25 -28 60 -25 84 6 32 40 28 90 -10 125 l-31 29 25 0 c14 0 33 -3 42 -6z
m-750 -85 c326 -18 283 -24 -169 -24 -240 0 -436 3 -436 7 0 12 37 18 125 21
188 7 301 6 480 -4z m681 -5 c-9 -8 -16 -19 -16 -24 0 -18 19 -20 35 -3 16 15
17 15 13 -8 -2 -19 -9 -24 -33 -24 -24 0 -31 5 -33 23 -5 34 5 52 28 52 20 0
20 -1 6 -16z m-119 -109 c6 -11 23 -31 37 -44 34 -32 33 -45 -3 -26 -55 28
-94 123 -69 167 12 22 13 20 18 -27 3 -27 11 -59 17 -70z m-304 56 c87 -42
109 -95 108 -251 -1 -149 -28 -205 -131 -272 -51 -34 -28 -31 56 7 58 25 97
71 113 130 14 51 14 273 0 313 -6 18 -23 36 -42 46 -25 12 -27 16 -12 16 59 0
80 -47 91 -205 17 -256 -44 -318 -384 -391 -16 -3 -21 -1 -17 7 5 7 1 9 -11 5
-141 -43 -412 -94 -519 -97 -136 -4 -152 -1 -159 24 -7 28 12 557 22 612 7 37
10 40 42 43 51 5 60 -14 60 -132 -1 -117 -10 -169 -39 -205 -49 -61 -63 -158
-37 -261 9 -35 18 -66 21 -68 2 -2 31 -1 64 3 l61 7 0 131 c0 73 -3 223 -7
335 l-6 202 -30 0 c-17 0 -27 3 -23 7 11 11 285 21 521 19 197 -2 213 -4 258
-25z m200 -11 c31 -37 47 -107 47 -210 0 -95 -15 -174 -38 -192 -14 -11 -15
-11 -9 5 17 45 29 168 24 239 -7 84 -24 135 -56 167 -15 15 -17 21 -7 21 8 0
25 -13 39 -30z"/>
<path d="M1673 912 c-66 -73 -129 -149 -97 -117 84 84 167 176 162 180 -2 3
-32 -26 -65 -63z"/>
<path d="M1458 829 c-49 -61 -194 -179 -327 -265 -64 -42 -159 -104 -211 -137
-161 -106 -128 -113 127 -27 150 50 134 60 -21 14 -44 -13 -84 -24 -90 -24 -5
0 46 36 114 81 200 130 398 299 436 372 21 39 10 34 -28 -14z"/>
<path d="M1539 753 c-13 -16 -12 -17 4 -4 16 13 21 21 13 21 -2 0 -10 -8 -17
-17z"/>
<path d="M435 580 l-120 -5 78 -8 c51 -6 101 -5 147 3 70 12 94 22 43 18 -16
-1 -82 -4 -148 -8z"/>
<path d="M556 1328 c-3 -7 -12 -134 -21 -283 -8 -148 -18 -287 -21 -307 -3
-21 -2 -38 4 -38 11 0 15 32 42 330 11 124 22 244 25 268 4 33 1 42 -11 42 -8
0 -16 -6 -18 -12z"/>
<path d="M655 1308 c-79 -448 -100 -598 -85 -598 18 0 289 72 363 96 l47 16 0
51 c0 37 -26 435 -30 465 0 1 -65 2 -145 2 l-144 0 -6 -32z"/>
<path d="M1024 1084 c-6 -137 -10 -250 -9 -252 1 -1 24 7 51 18 104 45 134
106 134 274 0 82 -4 107 -20 133 -25 41 -59 63 -108 70 l-38 5 -10 -248z"/>
</g>
</svg>
